<svg version="1.1" xmlns="http://www.w3.org/2000/svg" viewBox="0 0 2280 960" width="2280" height="960">
  <!-- svg-source:excalidraw -->
  
  <defs>
    <style class="style-fonts">
      @font-face {
        font-family: "Virgil";
        src: url("https://excalidraw.com/Virgil.woff2");
      }
      @font-face {
        font-family: "Cascadia";
        src: url("https://excalidraw.com/Cascadia.woff2");
      }
      @font-face {
        font-family: "Assistant";
        src: url("https://excalidraw.com/Assistant-Regular.woff2");
      }
    </style>
    
  </defs>
  <rect x="0" y="0" width="2280" height="960" fill="#ffffff"></rect><g stroke-linecap="round" transform="translate(250 230) rotate(0 201.5 47)"><path d="M23.5 0 C121.26 1.08, 217.94 1.49, 379.5 0 M23.5 0 C119.28 -0.78, 214.36 -1.64, 379.5 0 M379.5 0 C394.36 1.74, 404.29 8.14, 403 23.5 M379.5 0 C395.81 -0.13, 401.45 7.23, 403 23.5 M403 23.5 C403.6 35.24, 403.69 46.79, 403 70.5 M403 23.5 C403.47 32.61, 403.63 43.68, 403 70.5 M403 70.5 C401.6 86.11, 394.81 95.2, 379.5 94 M403 70.5 C404.81 88.09, 394.91 92.58, 379.5 94 M379.5 94 C266.34 95.88, 154.56 95.77, 23.5 94 M379.5 94 C267.54 93.53, 156.27 93.58, 23.5 94 M23.5 94 C6.13 93.66, 1.8 85.69, 0 70.5 M23.5 94 C6.57 93.83, -1 85.02, 0 70.5 M0 70.5 C-0.31 53.09, 1.48 33.31, 0 23.5 M0 70.5 C-0.46 60.01, -0.01 47.71, 0 23.5 M0 23.5 C-0.58 6.09, 9.65 1.07, 23.5 0 M0 23.5 C-1.93 6.5, 6.74 -0.66, 23.5 0" stroke="#e03131" stroke-width="2" fill="none"></path></g><g transform="translate(388.44005584716797 264.5) rotate(0 63.05994415283203 12.5)"><text x="63.05994415283203" y="0" font-family="Virgil, Segoe UI Emoji" font-size="20px" fill="#e03131" text-anchor="middle" style="white-space: pre;" direction="ltr" dominant-baseline="text-before-edge">Log Ingestor</text></g><g mask="url(#mask-d76WscRcuXMXs2bhtViZE)" stroke-linecap="round"><g transform="translate(710.3557030785829 572.6214829167723) rotate(0 159.82214846070855 -1.3107414583861328)"><path d="M-0.36 -0.54 C52.85 -0.9, 265.13 -1.55, 318.51 -2.09 M1.66 1.79 C55.28 1.07, 267.69 -3.13, 320.62 -3.93" stroke="#e03131" stroke-width="2" fill="none"></path></g><g transform="translate(710.3557030785829 572.6214829167723) rotate(0 159.82214846070855 -1.3107414583861328)"><path d="M292.62 6.83 C298.46 2.42, 307 2.14, 320.62 -3.93 M292.62 6.83 C299.36 3.5, 304.96 1.24, 320.62 -3.93" stroke="#e03131" stroke-width="2" fill="none"></path></g><g transform="translate(710.3557030785829 572.6214829167723) rotate(0 159.82214846070855 -1.3107414583861328)"><path d="M292.25 -13.69 C298.19 -13.15, 306.82 -8.48, 320.62 -3.93 M292.25 -13.69 C298.89 -12.8, 304.56 -10.84, 320.62 -3.93" stroke="#e03131" stroke-width="2" fill="none"></path></g></g><mask id="mask-d76WscRcuXMXs2bhtViZE"><rect x="0" y="0" fill="#fff" width="1130" height="675.2429658335445"></rect><rect x="774.9979427868501" y="546.3107414583862" fill="#000" width="190.3598175048828" height="50" opacity="1"></rect></mask><g transform="translate(774.99794278685 546.3107414583862) rotate(0 95.49094338972122 25.23755626395345)"><text x="95.1799087524414" y="0" font-family="Virgil, Segoe UI Emoji" font-size="20px" fill="#e03131" text-anchor="middle" style="white-space: pre;" direction="ltr" dominant-baseline="text-before-edge">http post request </text><text x="95.1799087524414" y="25" font-family="Virgil, Segoe UI Emoji" font-size="20px" fill="#e03131" text-anchor="middle" style="white-space: pre;" direction="ltr" dominant-baseline="text-before-edge">with log data</text></g><g stroke-linecap="round" transform="translate(1050 530) rotate(0 60 30)"><path d="M15 0 C35.24 -0.85, 55.01 0.83, 105 0 M15 0 C41.67 0.99, 69.39 1.49, 105 0 M105 0 C115.91 -0.26, 120.36 4.5, 120 15 M105 0 C113.29 0.84, 119.62 3.06, 120 15 M120 15 C119.82 23.52, 119.88 35.54, 120 45 M120 15 C120.64 24.79, 120.3 36.49, 120 45 M120 45 C121.81 56.28, 116.57 58.4, 105 60 M120 45 C119.87 54.89, 113.38 60.31, 105 60 M105 60 C79 59.23, 56.34 59.34, 15 60 M105 60 C80.91 60.02, 55.85 60.27, 15 60 M15 60 C3.29 60.84, -0.99 53.39, 0 45 M15 60 C3.92 61.56, 0.26 55.39, 0 45 M0 45 C0.82 32.92, 1.26 22.67, 0 15 M0 45 C0.36 36.2, 0.4 28.39, 0 15 M0 15 C-1.53 5.91, 4.01 -1.92, 15 0 M0 15 C1.61 4.99, 4.8 -0.07, 15 0" stroke="#e03131" stroke-width="2" fill="none"></path></g><g transform="translate(1071.190040588379 535) rotate(0 38.809959411621094 25)"><text x="38.809959411621094" y="0" font-family="Virgil, Segoe UI Emoji" font-size="20px" fill="#e03131" text-anchor="middle" style="white-space: pre;" direction="ltr" dominant-baseline="text-before-edge">http </text><text x="38.809959411621094" y="25" font-family="Virgil, Segoe UI Emoji" font-size="20px" fill="#e03131" text-anchor="middle" style="white-space: pre;" direction="ltr" dominant-baseline="text-before-edge">endpoint</text></g><g stroke-linecap="round" transform="translate(190 410) rotate(0 240 170)"><path d="M32 0 C184.24 -0.33, 335.58 0.99, 448 0 M32 0 C191.51 2.18, 349.76 2.34, 448 0 M448 0 C470.2 1.34, 479.45 11, 480 32 M448 0 C471.1 1.85, 477.73 10.09, 480 32 M480 32 C479.74 100.58, 480.25 165.48, 480 308 M480 32 C481.44 126.91, 481.28 223.33, 480 308 M480 308 C481.42 330.54, 467.35 341.73, 448 340 M480 308 C479.09 327.98, 467.41 338.58, 448 340 M448 340 C293.15 338.8, 137.66 337.53, 32 340 M448 340 C284.07 338.4, 120.44 338.67, 32 340 M32 340 C11.09 341.63, -0.01 328.39, 0 308 M32 340 C9.49 341.23, 1.97 327.43, 0 308 M0 308 C2.66 210.74, 2.95 115.97, 0 32 M0 308 C0.51 214.53, 0.37 120.61, 0 32 M0 32 C0.51 10.04, 10.67 -1.76, 32 0 M0 32 C-0.41 8.65, 12.22 1.06, 32 0" stroke="#e03131" stroke-width="2" fill="none"></path></g><g transform="translate(195 464.8) rotate(0 210.9375 115.20000000000002)"><text x="0" y="0" font-family="Cascadia, Segoe UI Emoji" font-size="16px" fill="#e03131" text-anchor="start" style="white-space: pre;" direction="ltr" dominant-baseline="text-before-edge">{</text><text x="0" y="19.2" font-family="Cascadia, Segoe UI Emoji" font-size="16px" fill="#e03131" text-anchor="start" style="white-space: pre;" direction="ltr" dominant-baseline="text-before-edge">	"level": "error",</text><text x="0" y="38.4" font-family="Cascadia, Segoe UI Emoji" font-size="16px" fill="#e03131" text-anchor="start" style="white-space: pre;" direction="ltr" dominant-baseline="text-before-edge">	"message": "Failed to connect to DB",</text><text x="0" y="57.599999999999994" font-family="Cascadia, Segoe UI Emoji" font-size="16px" fill="#e03131" text-anchor="start" style="white-space: pre;" direction="ltr" dominant-baseline="text-before-edge">    "resourceId": "server-1234",</text><text x="0" y="76.8" font-family="Cascadia, Segoe UI Emoji" font-size="16px" fill="#e03131" text-anchor="start" style="white-space: pre;" direction="ltr" dominant-baseline="text-before-edge">	"timestamp": "2023-09-15T08:00:00Z",</text><text x="0" y="96" font-family="Cascadia, Segoe UI Emoji" font-size="16px" fill="#e03131" text-anchor="start" style="white-space: pre;" direction="ltr" dominant-baseline="text-before-edge">	"traceId": "abc-xyz-123",</text><text x="0" y="115.19999999999999" font-family="Cascadia, Segoe UI Emoji" font-size="16px" fill="#e03131" text-anchor="start" style="white-space: pre;" direction="ltr" dominant-baseline="text-before-edge">    "spanId": "span-456",</text><text x="0" y="134.4" font-family="Cascadia, Segoe UI Emoji" font-size="16px" fill="#e03131" text-anchor="start" style="white-space: pre;" direction="ltr" dominant-baseline="text-before-edge">    "commit": "5e5342f",</text><text x="0" y="153.6" font-family="Cascadia, Segoe UI Emoji" font-size="16px" fill="#e03131" text-anchor="start" style="white-space: pre;" direction="ltr" dominant-baseline="text-before-edge">    "metadata": {</text><text x="0" y="172.79999999999998" font-family="Cascadia, Segoe UI Emoji" font-size="16px" fill="#e03131" text-anchor="start" style="white-space: pre;" direction="ltr" dominant-baseline="text-before-edge">        "parentResourceId": "server-0987"</text><text x="0" y="192" font-family="Cascadia, Segoe UI Emoji" font-size="16px" fill="#e03131" text-anchor="start" style="white-space: pre;" direction="ltr" dominant-baseline="text-before-edge">    }</text><text x="0" y="211.2" font-family="Cascadia, Segoe UI Emoji" font-size="16px" fill="#e03131" text-anchor="start" style="white-space: pre;" direction="ltr" dominant-baseline="text-before-edge">}</text></g><g transform="translate(300 382) rotate(0 37.5 9.599999999999994)"><text x="0" y="0" font-family="Cascadia, Segoe UI Emoji" font-size="16px" fill="#e03131" text-anchor="start" style="white-space: pre;" direction="ltr" dominant-baseline="text-before-edge">log data</text></g><g stroke-linecap="round"><g transform="translate(1190.6030212748797 570.0894113134593) rotate(0 70 0)"><path d="M-0.6 1.16 C22.48 1.26, 116.2 -0.06, 139.5 -0.09 M1.28 0.72 C24.08 1.09, 114.89 1.66, 138.3 1.4" stroke="#e03131" stroke-width="2" fill="none"></path></g><g transform="translate(1190.6030212748797 570.0894113134593) rotate(0 70 0)"><path d="M110.12 11.69 C122.92 7.06, 131.64 2.65, 138.3 1.4 M110.12 11.69 C120.05 7.42, 132.53 3.12, 138.3 1.4" stroke="#e03131" stroke-width="2" fill="none"></path></g><g transform="translate(1190.6030212748797 570.0894113134593) rotate(0 70 0)"><path d="M110.1 -8.83 C122.78 -5.59, 131.51 -2.13, 138.3 1.4 M110.1 -8.83 C120.1 -5.23, 132.59 -1.66, 138.3 1.4" stroke="#e03131" stroke-width="2" fill="none"></path></g></g><mask></mask><g transform="translate(1350 547.5) rotate(0 55.529945373535156 12.5)"><text x="0" y="0" font-family="Virgil, Segoe UI Emoji" font-size="20px" fill="#e03131" text-anchor="start" style="white-space: pre;" direction="ltr" dominant-baseline="text-before-edge">some queue</text></g><g stroke-linecap="round"><g transform="translate(1491.0926946444808 571.2031837396323) rotate(0 70 0)"><path d="M0.24 -0.1 C23.59 -0.4, 115.84 -0.67, 139.31 -0.71 M-1.09 -1.2 C22.72 -0.85, 118 0.12, 141.66 0.46" stroke="#e03131" stroke-width="2" fill="none"></path></g><g transform="translate(1491.0926946444808 571.2031837396323) rotate(0 70 0)"><path d="M113.35 10.38 C119.66 6.87, 125.24 7.48, 141.66 0.46 M113.35 10.38 C121.84 7.24, 129.27 3.95, 141.66 0.46" stroke="#e03131" stroke-width="2" fill="none"></path></g><g transform="translate(1491.0926946444808 571.2031837396323) rotate(0 70 0)"><path d="M113.59 -10.14 C120.04 -8.88, 125.56 -3.5, 141.66 0.46 M113.59 -10.14 C121.9 -7.68, 129.26 -5.37, 141.66 0.46" stroke="#e03131" stroke-width="2" fill="none"></path></g></g><mask></mask><g stroke-linecap="round"><g stroke-opacity="0.5" fill-opacity="0.5" transform="translate(1782.8737993893888 588.365192989646) rotate(0 35.369186437478334 -20.576255038897216)"><path d="M0.66 -1.1 C12.4 -7.76, 58.42 -33.58, 69.98 -40.05" stroke="#000000" stroke-width="1.5" fill="none" stroke-dasharray="8 9"></path></g><g stroke-opacity="0.5" fill-opacity="0.5" transform="translate(1782.8737993893888 588.365192989646) rotate(0 35.369186437478334 -20.576255038897216)"><path d="M68.68 -40.13 L61.32 -29.72 L55.11 -39.77 L69.52 -41.23" stroke="none" stroke-width="0" fill="#000000" fill-rule="evenodd"></path><path d="M69.98 -40.05 C66.31 -37.77, 66.78 -34.55, 61.23 -27.87 M61.23 -27.87 C57.79 -33.5, 56.97 -37.19, 55.02 -38.93 M55.02 -38.93 C61.66 -39.09, 67.82 -40.28, 69.98 -40.05 M69.98 -40.05 C69.98 -40.05, 69.98 -40.05, 69.98 -40.05" stroke="#000000" stroke-width="1.5" fill="none"></path></g></g><mask></mask><g stroke-linecap="round"><g stroke-opacity="0.5" fill-opacity="0.5" transform="translate(1780.6486846430075 626.1661184154564) rotate(0 35.83468672189747 20.816314337265794)"><path d="M-0.76 1.1 C10.96 8.42, 58.73 36.12, 70.96 42.83" stroke="#000000" stroke-width="1.5" fill="none" stroke-dasharray="8 9"></path></g><g stroke-opacity="0.5" fill-opacity="0.5" transform="translate(1780.6486846430075 626.1661184154564) rotate(0 35.83468672189747 20.816314337265794)"><path d="M71.05 40.99 L56.09 40.79 L61.8 29.43 L68.98 42.46" stroke="none" stroke-width="0" fill="#000000" fill-rule="evenodd"></path><path d="M70.96 42.83 C67.04 41.42, 61.86 43.04, 56 41.64 M56 41.64 C58.6 38.18, 60.77 35.22, 62.26 30.61 M62.26 30.61 C65.21 32.83, 66.14 36.95, 70.96 42.83 M70.96 42.83 C70.96 42.83, 70.96 42.83, 70.96 42.83" stroke="#000000" stroke-width="1.5" fill="none"></path></g></g><mask></mask><g stroke-opacity="0.5" fill-opacity="0.5" transform="translate(1938.539211253627 532.851398968337) rotate(89.99999999999994 26.951980590820312 10)"><text x="26.951980590820312" y="0" font-family="Virgil, Segoe UI Emoji" font-size="16px" fill="#000000" text-anchor="middle" style="white-space: pre;" direction="ltr" dominant-baseline="text-before-edge">Replica</text></g><g stroke-opacity="0.5" fill-opacity="0.5" transform="translate(1940.1065209163285 657.5149324461927) rotate(89.99999999999994 26.951980590820312 10)"><text x="26.951980590820312" y="0" font-family="Virgil, Segoe UI Emoji" font-size="16px" fill="#000000" text-anchor="middle" style="white-space: pre;" direction="ltr" dominant-baseline="text-before-edge">Replica</text></g><g stroke-opacity="0.5" fill-opacity="0.5" stroke-linecap="round" transform="translate(1650 450) rotate(0 185.67167634372163 148.16361408688715)"><path d="M74.08 0 C156.48 2.4, 241.49 3, 297.26 0 M297.26 0 C346.06 -1.43, 372.26 24.94, 371.34 74.08 M371.34 74.08 C371.81 126.84, 370.82 181.63, 371.34 222.25 M371.34 222.25 C373.13 271.7, 345.35 296.24, 297.26 296.33 M297.26 296.33 C228.52 296.01, 160.21 294.71, 74.08 296.33 M74.08 296.33 C24.33 296.06, -0.25 273.05, 0 222.25 M0 222.25 C1.4 176.09, 2.23 132.52, 0 74.08 M0 74.08 C-0.79 23.24, 24.14 -1.98, 74.08 0" stroke="#000000" stroke-width="1.5" fill="none" stroke-dasharray="1.5 7"></path></g><g stroke-linecap="round"><g stroke-opacity="0.5" fill-opacity="0.5" transform="translate(1696.0092295649306 566.8277833094517) rotate(0 38.45741983035805 41.766686977106644)" fill-rule="evenodd"><path d="M0 0 C0 0, 0 0, 0 0 M0 0 C0 0, 0 0, 0 0 M-0.26 6.4 C3.74 3.53, 6.03 -1.12, 8.92 -4.17 M-0.26 6.4 C3.59 2.75, 5.84 -1.43, 8.92 -4.17 M0.13 12.04 C4.07 4.67, 10.3 1.65, 15.22 -5.32 M0.13 12.04 C6.39 5.03, 12.48 -0.72, 15.22 -5.32 M-0.13 18.44 C6.96 9.12, 16.25 -0.81, 20.87 -5.71 M-0.13 18.44 C6.86 9.58, 14.99 0.86, 20.87 -5.71 M-0.39 24.84 C8.94 15.65, 14.56 5.24, 26.51 -6.11 M-0.39 24.84 C9.69 14.11, 20.4 1.39, 26.51 -6.11 M0 30.48 C8.48 23.44, 15.09 16.04, 32.15 -6.5 M0 30.48 C10.53 18.71, 21.43 6.24, 32.15 -6.5 M-0.26 36.88 C7.4 25.78, 15.2 16.13, 38.45 -7.65 M-0.26 36.88 C7.87 28.07, 16.61 18.85, 38.45 -7.65 M0.14 42.52 C11.64 30.35, 24.46 16.29, 43.44 -7.29 M0.14 42.52 C12.79 27.98, 24.07 13.48, 43.44 -7.29 M-0.12 48.92 C18.97 26.34, 37.61 5.62, 48.42 -6.93 M-0.12 48.92 C14.51 31.41, 29.28 15.56, 48.42 -6.93 M-0.38 55.32 C16.39 33.81, 35.77 12.48, 53.41 -6.57 M-0.38 55.32 C12.57 41.12, 25.14 27.05, 53.41 -6.57 M0.01 60.96 C25.03 34.63, 45.03 7.14, 58.4 -6.21 M0.01 60.96 C19.53 38.93, 39.52 14.72, 58.4 -6.21 M-0.25 67.36 C24.5 39.7, 48.09 9.36, 63.39 -5.85 M-0.25 67.36 C22.04 41.02, 45.85 13.12, 63.39 -5.85 M-0.51 73.75 C21.84 50.17, 43.66 26.26, 67.72 -4.74 M-0.51 73.75 C15.41 56.46, 32.58 36.78, 67.72 -4.74 M-0.12 79.4 C24.43 52.14, 49.39 24.41, 71.39 -2.87 M-0.12 79.4 C24.59 51.56, 49.49 23.03, 71.39 -2.87 M0.93 84.29 C21.09 59.66, 44.33 37.01, 75.72 -1.75 M0.93 84.29 C27.5 53.69, 54.99 20.56, 75.72 -1.75 M3.95 86.91 C32.39 56.53, 56.64 24.45, 77.43 2.38 M3.95 86.91 C28.2 60.5, 51.43 31.91, 77.43 2.38 M8.28 88.03 C26.5 64.83, 45.92 42.05, 77.17 8.78 M8.28 88.03 C30.84 60.86, 55.32 33.56, 77.17 8.78 M12.61 89.14 C25.51 73.59, 38.32 57.23, 77.56 14.42 M12.61 89.14 C36.05 63.03, 58.91 36.76, 77.56 14.42 M16.94 90.25 C30.44 74.3, 46.16 56.91, 77.3 20.82 M16.94 90.25 C31.65 71.85, 48.03 53.79, 77.3 20.82 M21.93 90.61 C42.18 70.89, 60.64 49.52, 77.04 27.22 M21.93 90.61 C34.8 74.87, 47.79 61.71, 77.04 27.22 M26.92 90.97 C38.64 74.99, 54.91 58.86, 77.43 32.86 M26.92 90.97 C38.23 77.74, 50.13 62.65, 77.43 32.86 M31.9 91.34 C45.85 73.42, 60.9 55.98, 77.17 39.26 M31.9 91.34 C48.46 71.17, 66.79 51.58, 77.17 39.26 M36.89 91.7 C45.52 79.57, 57.34 70.72, 77.57 44.9 M36.89 91.7 C47.8 79.76, 57.85 66.6, 77.57 44.9 M42.53 91.3 C50.63 82.22, 61.74 67.92, 77.31 51.3 M42.53 91.3 C49.89 82.89, 58.78 73.92, 77.31 51.3 M48.18 90.91 C51.93 84.14, 59.88 78.17, 77.04 57.7 M48.18 90.91 C59.2 80.1, 68.23 68.1, 77.04 57.7 M53.82 90.51 C60.48 84.23, 63.14 79.57, 77.44 63.34 M53.82 90.51 C62.07 81.12, 71.06 69.77, 77.44 63.34 M59.46 90.12 C65.53 82.22, 74.67 73.44, 77.18 69.74 M59.46 90.12 C64.05 86.76, 67.12 82, 77.18 69.74 M65.76 88.97 C69.19 86.67, 72.35 80.66, 76.92 76.14 M65.76 88.97 C68.65 85.4, 71.88 82.79, 76.92 76.14 M73.37 86.31 C74.55 85.47, 74.96 84.84, 77.31 81.78 M73.37 86.31 C75.03 84.81, 76.43 83.07, 77.31 81.78" stroke="#be4bdb" stroke-width="0.5" fill="none"></path><path d="M0.75 -0.44 C1.12 12.21, 1.68 60.65, 1.42 74.75 C1.15 88.86, -1.29 81.99, -0.84 84.21 C-0.39 86.43, 1.09 87.06, 4.11 88.08 C7.13 89.11, 11.03 89.86, 17.28 90.36 C23.54 90.86, 33.95 91.06, 41.62 91.06 C49.28 91.05, 57.51 91.13, 63.26 90.33 C69.01 89.52, 74.01 87.45, 76.13 86.22 C78.24 85, 75.8 84.86, 75.94 83 C76.09 81.14, 76.87 87.93, 77.01 75.06 C77.16 62.19, 76.98 18.47, 76.82 5.8 C76.67 -6.88, 77.18 0.66, 76.08 -1.01 C74.98 -2.67, 72.77 -3.33, 70.23 -4.21 C67.69 -5.09, 66.2 -5.66, 60.84 -6.28 C55.49 -6.89, 45.39 -7.92, 38.13 -7.91 C30.86 -7.9, 23.04 -6.82, 17.25 -6.19 C11.46 -5.57, 6.18 -5.12, 3.39 -4.14 C0.61 -3.17, 1.2 -0.9, 0.56 -0.35 C-0.09 0.19, -0.33 -0.73, -0.47 -0.87 M-0.32 -1.71 C0.07 11.21, 0.76 62.13, 1.08 76.11 C1.4 90.08, 1.04 80.52, 1.6 82.16 C2.16 83.79, 1.5 84.49, 4.44 85.91 C7.38 87.33, 13.36 90.04, 19.24 90.69 C25.11 91.34, 32.24 90.06, 39.69 89.81 C47.14 89.56, 57.92 89.85, 63.91 89.2 C69.91 88.55, 73.39 87.17, 75.66 85.91 C77.93 84.64, 77.16 82.96, 77.52 81.59 C77.88 80.22, 77.87 90.2, 77.81 77.69 C77.75 65.17, 77.11 19.76, 77.17 6.52 C77.23 -6.73, 79.41 0.14, 78.19 -1.8 C76.96 -3.75, 72.86 -4.36, 69.84 -5.15 C66.82 -5.94, 65.21 -5.99, 60.06 -6.55 C54.9 -7.1, 45.95 -8.18, 38.9 -8.46 C31.85 -8.75, 23.88 -9.02, 17.76 -8.26 C11.64 -7.49, 5.22 -5.23, 2.19 -3.88 C-0.84 -2.53, -0.31 -0.61, -0.42 -0.14 C-0.52 0.32, 1.48 -1.11, 1.55 -1.07" stroke="#862e9c" stroke-width="1" fill="none"></path></g></g><mask></mask><g stroke-opacity="0.5" fill-opacity="0.5" stroke-linecap="round" transform="translate(1695.5155618229896 558.0568566858174) rotate(0 38.252112724462336 7.736202016062123)"><path d="M-0.27 7.72 C-0.27 7.72, -0.27 7.72, -0.27 7.72 M-0.27 7.72 C-0.27 7.72, -0.27 7.72, -0.27 7.72 M3.41 9.59 C5.18 8.37, 5.96 6.65, 9.31 2.79 M3.41 9.59 C5.57 7.35, 7.63 4.84, 9.31 2.79 M7.08 11.46 C8.79 9.25, 11.67 6.76, 14.95 2.4 M7.08 11.46 C9.06 9.09, 11.43 6.59, 14.95 2.4 M10.76 13.33 C14.09 9.73, 17.18 4.91, 20.6 2 M10.76 13.33 C13.29 9.64, 16.35 6.32, 20.6 2 M15.74 13.69 C20.46 9.38, 23.62 4.79, 26.9 0.86 M15.74 13.69 C19.07 9.61, 22.38 6.53, 26.9 0.86 M20.73 14.05 C23.59 9.76, 27.23 6.18, 32.54 0.46 M20.73 14.05 C24.61 9.45, 28.11 5.65, 32.54 0.46 M25.72 14.41 C29.23 10, 32.82 6.83, 37.53 0.82 M25.72 14.41 C29.51 9.95, 34.19 5.02, 37.53 0.82 M30.05 15.52 C34.06 10.87, 37.58 5.81, 42.51 1.18 M30.05 15.52 C33.41 12.19, 36.06 8.93, 42.51 1.18 M35.04 15.88 C37.45 11.95, 41.18 9.16, 47.5 1.54 M35.04 15.88 C39.9 10.83, 44.44 4.56, 47.5 1.54 M40.68 15.49 C44.89 10.85, 50.21 4.74, 52.49 1.9 M40.68 15.49 C43.85 12.24, 46.7 7.84, 52.49 1.9 M46.32 15.09 C48.9 12.14, 53.46 7.35, 58.13 1.51 M46.32 15.09 C48.87 12.28, 50.93 9.23, 58.13 1.51 M51.96 14.7 C55.8 10.28, 58.46 6.48, 62.46 2.62 M51.96 14.7 C54.55 11.55, 57.64 8.13, 62.46 2.62 M57.61 14.3 C60.76 11.06, 63.66 7.48, 66.79 3.74 M57.61 14.3 C60.6 10.73, 63.63 7.62, 66.79 3.74 M63.91 13.15 C66.19 11.23, 68.25 8.43, 71.12 4.85 M63.91 13.15 C65.67 10.95, 67.73 8.42, 71.12 4.85 M70.21 12 C71.56 10.18, 73.35 8.07, 74.8 6.72 M70.21 12 C71.49 10.31, 73.15 8.62, 74.8 6.72" stroke="#be4bdb" stroke-width="0.5" fill="none"></path><path d="M31.77 -0.06 C39.3 -0.41, 50.17 0.42, 57.2 1.28 C64.24 2.13, 71.11 3.48, 73.98 5.07 C76.85 6.66, 77.17 9.3, 74.42 10.8 C71.68 12.31, 64.63 13.33, 57.52 14.1 C50.4 14.86, 39.88 15.61, 31.73 15.38 C23.57 15.16, 13.9 14.04, 8.58 12.75 C3.26 11.46, -0.21 9.39, -0.21 7.65 C-0.21 5.91, 3.04 3.57, 8.56 2.29 C14.09 1.02, 28.61 0.3, 32.96 0.01 C37.3 -0.29, 34.54 0.47, 34.64 0.54 M43.85 -0.12 C51.57 0, 60.91 0.86, 66.32 2 C71.72 3.14, 75.88 5, 76.27 6.7 C76.66 8.41, 73.56 10.8, 68.66 12.25 C63.75 13.7, 54.81 14.92, 46.84 15.4 C38.87 15.88, 28.11 15.92, 20.81 15.14 C13.52 14.36, 6.31 12.31, 3.09 10.74 C-0.13 9.17, -0.91 7.27, 1.5 5.71 C3.91 4.14, 10.6 2.34, 17.56 1.35 C24.52 0.36, 38.93 -0.18, 43.26 -0.26 C47.59 -0.33, 43.57 0.67, 43.54 0.92" stroke="#862e9c" stroke-width="1" fill="none"></path></g><g stroke-linecap="round"><g stroke-opacity="0.5" fill-opacity="0.5" transform="translate(1867.2365906200707 509.6596172942909) rotate(0 38.45741983035805 34.62493415154995)" fill-rule="evenodd"><path d="M0 0 C0 0, 0 0, 0 0 M0 0 C0 0, 0 0, 0 0 M-0.26 6.4 C2.76 3.91, 4.88 1.6, 5.64 -0.39 M-0.26 6.4 C2.05 3.82, 4.18 1.39, 5.64 -0.39 M0.13 12.04 C4.58 7.67, 6.92 6.06, 12.6 -2.3 M0.13 12.04 C3.89 8.7, 6.5 4.27, 12.6 -2.3 M-0.13 18.44 C5.89 13.49, 11 6.23, 18.24 -2.69 M-0.13 18.44 C5.1 13.22, 9.86 7.15, 18.24 -2.69 M0.27 24.08 C9.14 13.75, 14.62 7.11, 23.88 -3.09 M0.27 24.08 C7.52 14.24, 15.86 5.85, 23.88 -3.09 M0 30.48 C10.86 18.31, 21.11 6.25, 29.53 -3.48 M0 30.48 C9.57 18.85, 21.52 6.08, 29.53 -3.48 M-0.26 36.88 C7.98 26.63, 17.52 15.09, 37.14 -6.14 M-0.26 36.88 C10.7 22.89, 23.66 9.84, 37.14 -6.14 M0.14 42.52 C14.05 25.34, 31.04 9.67, 42.13 -5.78 M0.14 42.52 C12.32 30.05, 23.37 17.29, 42.13 -5.78 M-0.12 48.92 C11.92 33.69, 23.22 20.05, 47.11 -5.42 M-0.12 48.92 C11.64 35.56, 23.29 22.41, 47.11 -5.42 M-0.38 55.32 C13.15 39.34, 29.09 22.89, 52.1 -5.06 M-0.38 55.32 C15.81 36.83, 29.9 19.66, 52.1 -5.06 M0.01 60.96 C19.04 42.43, 34.3 20.31, 57.09 -4.7 M0.01 60.96 C23.83 34.28, 44.77 8.78, 57.09 -4.7 M-0.25 67.36 C22.01 46.33, 39.66 19.74, 62.07 -4.34 M-0.25 67.36 C23.47 39.89, 46.19 14.51, 62.07 -4.34 M1.45 71.49 C21.81 45.21, 44.05 19.77, 67.06 -3.98 M1.45 71.49 C25.89 43.56, 50.17 15.3, 67.06 -3.98 M5.79 72.61 C26.62 48.82, 46.93 25.74, 70.08 -1.36 M5.79 72.61 C27.25 47.08, 50.52 21.11, 70.08 -1.36 M10.12 73.72 C29.7 53.08, 46.7 29.45, 74.41 -0.24 M10.12 73.72 C34.19 46.36, 57.1 20.98, 74.41 -0.24 M14.45 74.83 C34.38 52.31, 52.43 31.62, 78.74 0.87 M14.45 74.83 C37.26 49.51, 59.87 22.43, 78.74 0.87 M18.78 75.95 C35.51 59.39, 48.93 39.51, 79.14 6.52 M18.78 75.95 C32.61 59.8, 49.28 41.75, 79.14 6.52 M23.77 76.31 C45.03 54.9, 61.6 32.93, 78.87 12.91 M23.77 76.31 C37.39 59.33, 52.42 41.91, 78.87 12.91 M29.41 75.92 C44.12 59.35, 61.22 38.68, 78.61 19.31 M29.41 75.92 C45.25 58.66, 59.42 41.53, 78.61 19.31 M34.4 76.28 C48.69 56.79, 68.04 39, 79.01 24.96 M34.4 76.28 C43.38 65.62, 53.75 53.22, 79.01 24.96 M39.38 76.64 C49.51 62.06, 62.53 48, 78.75 31.35 M39.38 76.64 C53.75 62.01, 66.97 45.31, 78.75 31.35 M43.71 77.75 C54.77 68.14, 61.52 55.37, 78.48 37.75 M43.71 77.75 C52.44 67.12, 62.44 55.52, 78.48 37.75 M49.36 77.36 C55.41 69.19, 63.52 61.44, 78.88 43.39 M49.36 77.36 C59.4 65.6, 68.82 53.35, 78.88 43.39 M54.34 77.72 C61.96 66.03, 74.38 55.59, 78.62 49.79 M54.34 77.72 C62.23 68.15, 72.27 55.95, 78.62 49.79 M59.99 77.32 C66.77 70.99, 71.74 65.84, 78.36 56.19 M59.99 77.32 C66.54 69.49, 75.53 61.24, 78.36 56.19 M65.63 76.93 C71.16 73.96, 73.37 66.95, 78.75 61.83 M65.63 76.93 C71.74 71.49, 75.3 64.81, 78.75 61.83" stroke="#be4bdb" stroke-width="0.5" fill="none"></path><path d="M-0.86 0.55 C-0.98 11.11, 0.33 51.55, 0.4 62.99 C0.47 74.44, -1.13 67.73, -0.44 69.23 C0.26 70.74, 1.54 70.99, 4.58 72.02 C7.61 73.05, 11.5 74.8, 17.75 75.44 C24 76.08, 34.62 76.02, 42.08 75.86 C49.53 75.7, 56.96 75.4, 62.46 74.48 C67.97 73.56, 72.73 71.36, 75.11 70.34 C77.5 69.32, 76.51 69.66, 76.77 68.34 C77.03 67.03, 76.88 72.99, 76.68 62.43 C76.48 51.88, 75.67 15.48, 75.59 5.01 C75.51 -5.47, 76.75 0.98, 76.2 -0.4 C75.65 -1.78, 74.96 -2.62, 72.26 -3.29 C69.56 -3.96, 65.81 -3.72, 60 -4.42 C54.18 -5.12, 44.23 -7.23, 37.38 -7.49 C30.52 -7.75, 24.61 -6.65, 18.85 -5.99 C13.09 -5.33, 6.03 -4.33, 2.82 -3.54 C-0.38 -2.74, 0.04 -1.75, -0.37 -1.22 C-0.79 -0.7, 0.12 -0.6, 0.32 -0.37 M0.9 -0.21 C0.52 10.04, -0.08 49.47, -0.47 61.25 C-0.86 73.03, -2.37 68.54, -1.44 70.49 C-0.5 72.43, 2.19 71.99, 5.14 72.92 C8.1 73.84, 10.42 75.73, 16.29 76.05 C22.17 76.37, 32.66 75.33, 40.39 74.84 C48.12 74.35, 57.08 73.4, 62.7 73.11 C68.32 72.81, 72.05 73.54, 74.12 73.08 C76.19 72.62, 74.6 72.27, 75.13 70.36 C75.66 68.44, 77.28 72.36, 77.3 61.61 C77.33 50.86, 75.72 16.29, 75.29 5.88 C74.86 -4.54, 75.1 0.76, 74.7 -0.9 C74.31 -2.57, 74.99 -3.55, 72.94 -4.11 C70.89 -4.67, 68.29 -4.14, 62.43 -4.27 C56.56 -4.39, 45.4 -4.77, 37.76 -4.88 C30.11 -4.98, 22 -5.17, 16.54 -4.89 C11.08 -4.62, 8.04 -3.81, 4.98 -3.24 C1.92 -2.67, -0.85 -1.97, -1.83 -1.48 C-2.81 -0.99, -1.5 -0.3, -0.89 -0.31" stroke="#862e9c" stroke-width="1" fill="none"></path></g></g><mask></mask><g stroke-opacity="0.5" fill-opacity="0.5" stroke-linecap="round" transform="translate(1866.7429228781316 502.2329189060665) rotate(0 38.252112724462336 7.736202016062123)"><path d="M0.23 6.82 C0.23 6.82, 0.23 6.82, 0.23 6.82 M0.23 6.82 C0.23 6.82, 0.23 6.82, 0.23 6.82 M3.25 9.45 C5.43 7, 7.57 5.04, 8.49 3.41 M3.25 9.45 C5.1 7.19, 7.18 4.88, 8.49 3.41 M6.92 11.32 C9.26 8.26, 12.19 5.23, 14.14 3.01 M6.92 11.32 C9.29 8.81, 11.14 6.13, 14.14 3.01 M10.6 13.19 C14.21 9.44, 18.47 4.24, 20.44 1.87 M10.6 13.19 C13.03 10.88, 15.12 8.51, 20.44 1.87 M15.58 13.55 C18.98 9.96, 22.67 5.77, 26.08 1.47 M15.58 13.55 C17.74 10.64, 19.92 8, 26.08 1.47 M19.91 14.66 C22.54 12, 25.59 9.24, 31.72 1.08 M19.91 14.66 C23.02 11.34, 26.44 7.56, 31.72 1.08 M24.9 15.02 C28.91 10.68, 31.66 6.07, 37.37 0.68 M24.9 15.02 C29.8 9.28, 34.58 3.95, 37.37 0.68 M29.89 15.38 C33.22 10.41, 36.99 7.16, 42.35 1.04 M29.89 15.38 C33.74 10.45, 38.24 5.51, 42.35 1.04 M35.53 14.99 C38.96 11.86, 41.82 8.93, 47.34 1.4 M35.53 14.99 C40.61 9.62, 44.58 4.05, 47.34 1.4 M40.52 15.35 C44.32 11.52, 48.14 6.01, 52.33 1.76 M40.52 15.35 C45.04 10.19, 49.37 4.49, 52.33 1.76 M46.16 14.95 C49.55 10.78, 53.74 5.52, 57.31 2.12 M46.16 14.95 C49.78 11.12, 53.37 7.24, 57.31 2.12 M51.15 15.31 C53.52 12.98, 57.11 8.91, 62.3 2.48 M51.15 15.31 C55.02 11.08, 58.97 6.75, 62.3 2.48 M57.45 14.16 C60.78 10.86, 64.25 6.95, 66.63 3.6 M57.45 14.16 C59.9 11.17, 62.88 8.45, 66.63 3.6 M63.75 13.01 C66.28 10.34, 68.98 6.4, 70.96 4.71 M63.75 13.01 C66.55 10.03, 68.84 6.81, 70.96 4.71 M70.05 11.86 C71.81 10.15, 73.34 7.65, 75.29 5.83 M70.05 11.86 C71.42 10.07, 72.89 8.33, 75.29 5.83" stroke="#be4bdb" stroke-width="0.5" fill="none"></path><path d="M34.51 0.04 C42.26 -0.17, 53.4 0.93, 60.17 1.82 C66.95 2.7, 73.02 3.83, 75.15 5.36 C77.29 6.89, 76.5 9.42, 73 10.99 C69.5 12.55, 61.61 14.06, 54.18 14.75 C46.74 15.43, 36.28 15.61, 28.37 15.11 C20.47 14.6, 11.49 13.06, 6.76 11.72 C2.04 10.38, -0.67 8.56, 0.03 7.04 C0.74 5.53, 4.85 3.9, 10.97 2.65 C17.1 1.41, 32.09 0, 36.78 -0.41 C41.48 -0.82, 39.19 -0.04, 39.15 0.2 M35.61 -0.73 C43.43 -0.87, 54.4 0.15, 61.12 1.27 C67.85 2.4, 73.99 4.26, 75.96 6.01 C77.93 7.75, 76.65 10.25, 72.96 11.73 C69.28 13.22, 61.51 14.28, 53.87 14.91 C46.23 15.54, 35.11 15.96, 27.15 15.5 C19.18 15.05, 10.6 13.68, 6.08 12.19 C1.56 10.7, -0.97 8.11, 0.02 6.55 C1.01 4.99, 6.03 3.85, 12.01 2.83 C17.99 1.81, 31.9 0.74, 35.91 0.42 C39.92 0.09, 36.14 0.75, 36.08 0.88" stroke="#862e9c" stroke-width="1" fill="none"></path></g><g stroke-linecap="round"><g stroke-opacity="0.5" fill-opacity="0.5" transform="translate(1868.6797699558192 633.7384156870289) rotate(0 38.45741983035805 34.62493415154995)" fill-rule="evenodd"><path d="M0 0 C0 0, 0 0, 0 0 M0 0 C0 0, 0 0, 0 0 M-0.26 6.4 C3.05 1.87, 5.36 0.55, 8.27 -3.41 M-0.26 6.4 C1.38 3.9, 4.48 2.07, 8.27 -3.41 M0.13 12.04 C2.95 9.5, 8.25 4.84, 14.57 -4.56 M0.13 12.04 C4.92 6.86, 9.41 1.03, 14.57 -4.56 M-0.13 18.44 C6.22 11.27, 12.75 3, 20.21 -4.96 M-0.13 18.44 C7.63 8.92, 14.75 1.58, 20.21 -4.96 M0.27 24.08 C6.56 19.79, 8.92 10.56, 25.85 -5.35 M0.27 24.08 C7.2 17.03, 13.86 9.91, 25.85 -5.35 M0 30.48 C10.4 20.04, 19.33 7.24, 31.5 -5.75 M0 30.48 C10.01 17.45, 20.87 5.07, 31.5 -5.75 M-0.26 36.88 C13.17 23.84, 26.09 6.68, 37.14 -6.14 M-0.26 36.88 C9.65 26.54, 18.79 14.23, 37.14 -6.14 M0.14 42.52 C11.23 27.93, 22.08 15.98, 42.13 -5.78 M0.14 42.52 C12.31 27.84, 25.57 12.74, 42.13 -5.78 M-0.12 48.92 C9.74 35.39, 23.07 24.61, 47.11 -5.42 M-0.12 48.92 C11.79 34.79, 24.03 19.67, 47.11 -5.42 M-0.38 55.32 C17.89 35.91, 36.52 15.1, 52.1 -5.06 M-0.38 55.32 C14.73 37.17, 29.05 21.71, 52.1 -5.06 M0.01 60.96 C23.53 35.53, 43 14.13, 57.09 -4.7 M0.01 60.96 C13.71 45.25, 25.82 31.93, 57.09 -4.7 M-0.25 67.36 C25.55 38.58, 48.5 12.78, 62.07 -4.34 M-0.25 67.36 C13.33 52.67, 26.68 36.47, 62.07 -4.34 M1.45 71.49 C21.34 52.7, 36.8 31.14, 67.06 -3.98 M1.45 71.49 C22.41 48.21, 43.11 24.03, 67.06 -3.98 M5.79 72.61 C26.08 51.41, 44.8 26.9, 71.39 -2.87 M5.79 72.61 C25.37 50.45, 46.24 26.89, 71.39 -2.87 M10.12 73.72 C36.14 45.59, 57.35 18.65, 75.07 -1 M10.12 73.72 C23.11 57.89, 35.26 43.56, 75.07 -1 M14.45 74.83 C31.37 56.28, 44.19 38.56, 77.43 2.38 M14.45 74.83 C35.24 50.38, 56.13 27.28, 77.43 2.38 M19.43 75.19 C38.66 53.39, 58.04 28.11, 77.17 8.78 M19.43 75.19 C39.86 50.92, 60.2 28.83, 77.17 8.78 M24.42 75.56 C43.99 54.2, 63.92 28.7, 77.56 14.42 M24.42 75.56 C40.55 57.94, 55.84 39.25, 77.56 14.42 M29.41 75.92 C46.71 55.83, 64.46 37.24, 77.3 20.82 M29.41 75.92 C47.31 56.96, 64.18 35.94, 77.3 20.82 M35.05 75.52 C44.39 63.51, 58.37 48.52, 77.04 27.22 M35.05 75.52 C49.82 59.1, 64.62 40.62, 77.04 27.22 M40.04 75.88 C49.8 64.16, 55.84 56.49, 77.43 32.86 M40.04 75.88 C53.5 59.85, 67.17 45.19, 77.43 32.86 M45.68 75.49 C56.04 63.74, 67.77 49.59, 77.17 39.26 M45.68 75.49 C55.63 64.3, 67.18 51.06, 77.17 39.26 M51.33 75.09 C59.92 65.24, 66.01 56.66, 76.91 45.66 M51.33 75.09 C59.58 67.03, 65.11 57.98, 76.91 45.66 M56.31 75.45 C62.43 71.2, 67.05 62.43, 77.31 51.3 M56.31 75.45 C64.54 66.25, 73.17 57.43, 77.31 51.3 M61.96 75.06 C68.66 68.85, 72.91 62.3, 77.04 57.7 M61.96 75.06 C67.31 68.09, 73.53 62.95, 77.04 57.7 M68.91 73.15 C72.96 69.25, 74.67 67.47, 76.78 64.1 M68.91 73.15 C71.65 70.49, 74.11 66.53, 76.78 64.1" stroke="#be4bdb" stroke-width="0.5" fill="none"></path><path d="M-0.45 -0.12 C-0.33 10.07, 0.78 50.22, 0.86 61.87 C0.94 73.52, -0.66 68.02, 0.03 69.78 C0.73 71.55, 2.21 71.6, 5.04 72.46 C7.86 73.32, 10.95 74.59, 16.96 74.96 C22.96 75.34, 33.34 74.87, 41.06 74.71 C48.79 74.56, 57.67 74.69, 63.29 74.02 C68.91 73.36, 72.74 71.64, 74.78 70.74 C76.82 69.84, 75.2 69.92, 75.54 68.63 C75.88 67.34, 76.45 73.56, 76.8 62.99 C77.14 52.42, 77.86 15.67, 77.62 5.24 C77.38 -5.19, 76.37 1.99, 75.35 0.41 C74.34 -1.17, 73.8 -3.27, 71.51 -4.23 C69.22 -5.2, 67.38 -4.85, 61.6 -5.38 C55.82 -5.92, 44.08 -7.19, 36.8 -7.44 C29.53 -7.68, 23.46 -7.6, 17.93 -6.87 C12.39 -6.13, 6.47 -4.2, 3.62 -3.04 C0.77 -1.87, 1.31 -0.54, 0.82 0.12 C0.33 0.77, 0.76 0.9, 0.69 0.9 M1.52 -1.23 C1.52 9.06, 0.61 51.72, 0.24 63.2 C-0.14 74.68, -1.05 65.93, -0.73 67.66 C-0.4 69.39, -1.06 72.31, 2.18 73.59 C5.43 74.86, 12.02 74.8, 18.74 75.33 C25.46 75.85, 34.97 76.63, 42.51 76.75 C50.04 76.88, 58.78 77.19, 63.96 76.07 C69.15 74.95, 71.45 71.52, 73.61 70.03 C75.77 68.54, 76.26 68.39, 76.91 67.13 C77.55 65.87, 77.23 72.61, 77.48 62.46 C77.73 52.31, 78.46 16.58, 78.39 6.23 C78.32 -4.13, 78.17 1.68, 77.08 0.33 C75.98 -1.02, 74.44 -0.87, 71.79 -1.88 C69.15 -2.89, 67.03 -5.25, 61.21 -5.74 C55.39 -6.22, 43.96 -4.71, 36.88 -4.79 C29.81 -4.87, 24.51 -6.62, 18.79 -6.24 C13.06 -5.85, 5.67 -3.62, 2.53 -2.48 C-0.6 -1.35, 0.46 -0.12, -0.02 0.57 C-0.49 1.25, -0.53 1.98, -0.33 1.63" stroke="#862e9c" stroke-width="1" fill="none"></path></g></g><mask></mask><g stroke-opacity="0.5" fill-opacity="0.5" stroke-linecap="round" transform="translate(1868.1861022138783 626.3117172988045) rotate(0 38.252112724462336 7.736202016062123)"><path d="M0.67 5.88 C0.67 5.88, 0.67 5.88, 0.67 5.88 M0.67 5.88 C0.67 5.88, 0.67 5.88, 0.67 5.88 M3.03 9.26 C4.44 8.04, 5.4 6.41, 7.62 3.98 M3.03 9.26 C4.37 7.89, 5.64 6.31, 7.62 3.98 M5.39 12.64 C8.04 10.16, 10.33 7.11, 14.58 2.07 M5.39 12.64 C8.53 9.02, 11.06 6.04, 14.58 2.07 M10.38 13 C13.2 8.66, 16.7 5.54, 20.22 1.68 M10.38 13 C13.93 8.99, 17.36 4.99, 20.22 1.68 M14.71 14.11 C17.98 9.92, 23.23 4.72, 25.86 1.28 M14.71 14.11 C17.27 10.98, 20.13 7.57, 25.86 1.28 M19.7 14.47 C22.97 9.84, 27.78 5.99, 31.51 0.89 M19.7 14.47 C23.7 9.65, 28.35 5.17, 31.51 0.89 M24.03 15.59 C28.39 11.68, 31.71 7.82, 37.15 0.49 M24.03 15.59 C27.39 11.39, 30.55 7.59, 37.15 0.49 M29.67 15.19 C33.15 11.27, 36.78 7.35, 42.79 0.1 M29.67 15.19 C33.06 11.17, 37.04 7.06, 42.79 0.1 M34.66 15.55 C39.53 10.79, 41.79 7.23, 47.78 0.46 M34.66 15.55 C38.98 11.31, 42.45 6.18, 47.78 0.46 M40.3 15.16 C45.82 9.14, 49.04 4.16, 52.11 1.57 M40.3 15.16 C44.51 11.2, 47.77 6.04, 52.11 1.57 M45.95 14.76 C50.21 9.25, 54.08 5.46, 57.1 1.93 M45.95 14.76 C49.38 10.31, 53.17 5.98, 57.1 1.93 M50.93 15.13 C55.39 10.46, 59.24 5.76, 62.09 2.29 M50.93 15.13 C54.63 11.01, 58.14 7.03, 62.09 2.29 M57.23 13.98 C60.22 10.38, 64.11 6.46, 66.42 3.41 M57.23 13.98 C60.12 11.1, 62.49 7.67, 66.42 3.41 M63.53 12.83 C66.49 9.28, 68.81 7.14, 70.75 4.52 M63.53 12.83 C65.76 10.24, 67.76 7.95, 70.75 4.52 M69.17 12.43 C70.98 10.45, 72.77 7.95, 74.42 6.39 M69.17 12.43 C70.62 10.99, 71.76 9.23, 74.42 6.39" stroke="#be4bdb" stroke-width="0.5" fill="none"></path><path d="M38.42 -0.32 C46.17 -0.49, 56.76 0.73, 62.93 1.85 C69.11 2.98, 74.13 4.83, 75.49 6.44 C76.85 8.05, 75.19 10.17, 71.09 11.52 C67 12.86, 58.59 13.95, 50.9 14.52 C43.21 15.09, 32.59 15.36, 24.94 14.93 C17.29 14.5, 9.04 13.43, 4.99 11.93 C0.93 10.43, -0.9 7.63, 0.61 5.94 C2.12 4.26, 7.59 2.78, 14.05 1.83 C20.52 0.88, 34.92 0.56, 39.41 0.25 C43.9 -0.05, 41.03 -0.08, 41 -0.02 M29.43 0.33 C36.9 -0.02, 48.03 0.62, 55.36 1.34 C62.69 2.06, 70.2 3.18, 73.42 4.66 C76.65 6.13, 77.05 8.59, 74.71 10.19 C72.37 11.8, 66.16 13.48, 59.4 14.3 C52.63 15.12, 42.21 15.18, 34.14 15.1 C26.07 15.02, 16.63 14.89, 10.97 13.82 C5.32 12.75, 0.78 10.35, 0.2 8.7 C-0.39 7.05, 2.76 5.26, 7.46 3.92 C12.16 2.58, 24.72 1.23, 28.41 0.68 C32.1 0.12, 29.32 0.44, 29.62 0.57" stroke="#862e9c" stroke-width="1" fill="none"></path></g><g transform="translate(1688.3864113800687 675.000981856464) rotate(0 49.439964294433594 12.5)"><text x="0" y="0" font-family="Virgil, Segoe UI Emoji" font-size="20px" fill="#000000" text-anchor="start" style="white-space: pre;" direction="ltr" dominant-baseline="text-before-edge">Database</text></g><g stroke-linecap="round" transform="translate(1030 210) rotate(0 180 110)"><path d="M32 0 C129.61 -1.69, 223.89 0.81, 328 0 M32 0 C136.08 0.89, 238.8 1.3, 328 0 M328 0 C347.46 -1.1, 359.05 9.11, 360 32 M328 0 C348.85 1.37, 360.46 9.6, 360 32 M360 32 C361.26 69.32, 363.17 103.97, 360 188 M360 32 C361.23 87.05, 361.47 139.66, 360 188 M360 188 C361.05 209.03, 351.1 218.54, 328 220 M360 188 C358.84 208.11, 351.03 218.65, 328 220 M328 220 C242.63 221.28, 156.34 221.79, 32 220 M328 220 C245.8 219.8, 164.46 221.1, 32 220 M32 220 C8.78 218.39, 1.7 210.66, 0 188 M32 220 C12.72 218.96, -0.36 207.24, 0 188 M0 188 C0.99 126.76, -0.06 65.5, 0 32 M0 188 C-0.94 152.17, -0.12 116.93, 0 32 M0 32 C-1.53 9.8, 10.96 -1.97, 32 0 M0 32 C0.63 8.49, 10.1 -1.12, 32 0" stroke="#e03131" stroke-width="2" fill="none"></path></g><g transform="translate(1042.888888888889 177.94444444444449) rotate(0 84.74993133544922 12.5)"><text x="0" y="0" font-family="Virgil, Segoe UI Emoji" font-size="20px" fill="#e03131" text-anchor="start" style="white-space: pre;" direction="ltr" dominant-baseline="text-before-edge"> Query Interface</text></g><g stroke-linecap="round" transform="translate(1070 230) rotate(0 100 20)"><path d="M10 0 C51.4 0.88, 89.99 1.35, 190 0 M10 0 C52.1 0.59, 93.79 1.36, 190 0 M190 0 C197.04 0.11, 198.48 4.68, 200 10 M190 0 C196.43 1.79, 198.48 2.31, 200 10 M200 10 C199.16 15.6, 199.82 25.63, 200 30 M200 10 C199.15 15.27, 199.81 21.09, 200 30 M200 30 C201.71 38.31, 195.02 40.68, 190 40 M200 30 C200.52 34.74, 196.44 42.16, 190 40 M190 40 C118.22 39.76, 47.59 39.66, 10 40 M190 40 C139.4 40.18, 87.17 39.64, 10 40 M10 40 C5.21 41.61, -0.27 36.27, 0 30 M10 40 C3.36 40.65, 0.63 38.03, 0 30 M0 30 C-1.19 23.44, -2.05 17.7, 0 10 M0 30 C0.34 24.76, -0.68 20.88, 0 10 M0 10 C1.41 4.7, 1.49 1.64, 10 0 M0 10 C1.41 4.23, 4.49 -0.78, 10 0" stroke="#e03131" stroke-width="2" fill="none"></path></g><g transform="translate(1290 230) rotate(0 31.829971313476562 12.5)"><text x="0" y="0" font-family="Virgil, Segoe UI Emoji" font-size="20px" fill="#e03131" text-anchor="start" style="white-space: pre;" direction="ltr" dominant-baseline="text-before-edge">search</text></g><g stroke-linecap="round"><g transform="translate(1450 230) rotate(0 180 90)"><path d="M0.32 0.85 C52.14 4.13, 250.16 -11.09, 310.27 18.9 C370.38 48.88, 352.62 153.79, 360.99 180.74 M-0.96 0.24 C50.83 3.7, 249.47 -9.9, 309.75 19.85 C370.03 49.61, 352.2 152.36, 360.74 178.78" stroke="#e03131" stroke-width="2" fill="none"></path></g><g transform="translate(1450 230) rotate(0 180 90)"><path d="M348.16 151.55 C352.48 159.58, 352.33 166.55, 360.74 178.78 M348.16 151.55 C352.47 160.83, 356.8 170.68, 360.74 178.78" stroke="#e03131" stroke-width="2" fill="none"></path></g><g transform="translate(1450 230) rotate(0 180 90)"><path d="M368.61 149.83 C367.89 158.35, 362.7 165.74, 360.74 178.78 M368.61 149.83 C365.54 159.84, 362.48 170.31, 360.74 178.78" stroke="#e03131" stroke-width="2" fill="none"></path></g></g><mask></mask><g transform="translate(1557.3333333333333 185.72222222222229) rotate(0 60.429954528808594 12.5)"><text x="0" y="0" font-family="Virgil, Segoe UI Emoji" font-size="20px" fill="#e03131" text-anchor="start" style="white-space: pre;" direction="ltr" dominant-baseline="text-before-edge">read only db</text></g><g stroke-linecap="round" transform="translate(10 10) rotate(0 1130 470)"><path d="M32 0 C895.81 4.4, 1758.7 3.66, 2228 0 M32 0 C549.38 -3.81, 1067.21 -3.45, 2228 0 M2228 0 C2248.68 -1.85, 2261.05 8.91, 2260 32 M2228 0 C2250.76 0.81, 2259.78 11.39, 2260 32 M2260 32 C2262.41 225.73, 2262.98 419.66, 2260 908 M2260 32 C2260.36 360.66, 2260.32 689.04, 2260 908 M2260 908 C2259.71 930.02, 2249.11 938.69, 2228 940 M2260 908 C2259.2 928.71, 2249.34 938.1, 2228 940 M2228 940 C1710.65 944.51, 1195.21 944.98, 32 940 M2228 940 C1350.81 942.32, 473.32 942.24, 32 940 M32 940 C9.83 938.06, 1.69 930.45, 0 908 M32 940 C9.53 938.87, -1.01 931.55, 0 908 M0 908 C-3.36 628.29, -3.62 347.15, 0 32 M0 908 C-1.48 640.75, -1.55 373.6, 0 32 M0 32 C0.87 12.21, 8.68 0.11, 32 0 M0 32 C-1.8 10.03, 9.36 1.28, 32 0" stroke="#1e1e1e" stroke-width="2" fill="none"></path></g></svg>